Patient4_TMGait_0pt5_02_left_36_EMG.mot
version=1
nRows=37
nColumns=33
inDegrees=no
endheader
time	1LAddLong	2LGlutMax	3LGlutMed	4LIliopsoas	5LSemiMemb	6LBicFemLong	7LRecFem	8LVastMed	9LVastLat	10LGasMed	11LTibAnt	12lTibPost	13LPeroneusLong	14LSol	15LExtDigLong	16LFlexDigLong	17RAddLong	18RGlutMax	19RGlutMed	20RIliopsoas	21RSemiMemb	22RBicFemLong	23RRecFem	24RVastMed	25RVastLat	26RGasMed	27RTibAnt	28RTibPost	29RPeroneusLong	30RSol	31RExtDigLong	32RFlexDigLong
46.34	-0.002899	0.31891	-0.051117	-0.011597	0.006104	-0.015259	0.27069	0.026093	0.10193	-0.039063	0.13519	0.001678	0.016937	-0.009308	0.16449	0.011139	-0.018616	-0.25559	0.5751	-0.059204	0.1947	0.06012	0.062408	-0.044861	0.075226	-0.02533	0.02533	-0.006409	-0.11581	0.34759	0.002441	0.002289
46.341	-0.000458	0.32044	-0.024719	-0.014801	0.001221	-0.030212	0.27054	0.023346	0.12604	-0.011597	0.059814	-0.004883	0.014648	-0.028229	0.37628	-0.009308	-0.030212	-0.15976	0.33814	-0.046082	0.087433	0.026855	0.046844	-0.014801	-0.25696	-0.021667	-0.65964	-0.007629	-0.048828	0.37689	0.00473	0.003357
46.342	-0.011444	0.30945	-0.033875	-0.014191	0.002289	-0.052338	0.2742	0.022583	0.16815	0.027313	-0.033264	0.000916	0.02243	-0.023651	-0.014191	-0.019226	-0.027313	-0.18951	-0.045929	-0.041351	0.014496	0.088654	-0.039368	0	-0.61386	-0.016632	-0.50552	-0.005798	-0.083923	0.22018	0.010834	-0.000153
46.343	0.000458	0.3096	-0.048065	-0.001678	0.001678	-0.020752	0.26703	0.021057	0.19241	0.010681	0.00473	0.005798	0.036163	0.013733	-0.018616	0.00351	0.000458	-0.13977	-0.17899	0.005188	-0.011292	0.10513	-0.050354	-0.074158	-0.69992	-0.015259	-0.2594	-0.005646	-0.013733	0.13809	0.011444	0.00351
46.344	0.007477	0.27969	-0.064087	0.005493	0.005188	0.004272	0.26199	0.02121	0.2211	-0.034943	0.005951	0.002289	0.097961	0.033722	-0.14374	-0.014954	0.01297	-0.17227	-0.13367	0.000763	0.000305	0.084076	-0.005493	-0.047302	-0.29709	-0.007935	-0.081329	-0.003357	0.061951	0.016479	0.016937	0.002441
46.345	0.008698	0.26489	-0.041504	0.00946	-0.010834	-0.006256	0.25146	0.019531	0.22858	-0.042572	-0.003204	0.007172	0.097198	0.037231	-0.20645	-0.014038	0.032196	-0.16953	-0.33508	0.013123	0.022278	0.10132	-0.000916	-0.037689	0.11841	-0.005493	0.22125	-0.002594	0.02533	0.028992	0.015869	-0.007477
46.346	0.019226	0.28305	-0.043945	0.002899	-0.020294	-0.006104	0.24292	0.019989	0.22827	0.002441	0.033417	0.007935	0.040894	0.02121	-0.22125	-0.023651	0.015869	-0.13046	-0.28427	-0.039825	0.028839	0.12665	0.10391	-0.06134	0.20172	-0.010223	0.26993	-0.005188	-0.028687	0.063629	0.013428	-0.003662
46.347	0.019684	0.27496	-0.040131	0.012054	-0.029297	-0.042877	0.26154	0.016937	0.24597	0.01236	0.054779	-0.001068	0.055542	0.007477	-0.098267	-0.019226	0.007019	-0.16678	-0.15823	-0.048828	-0.046234	0.15823	0.13428	-0.092316	0.16739	-0.012207	0.20599	-0.009308	-0.038605	0.066681	0.014801	-0.001526
46.348	0.027618	0.27893	-0.027008	0.031128	-0.001678	-0.066681	0.24094	0.018158	0.25864	-0.02533	-0.059967	0.011444	0.095978	0.007324	-0.038757	0.002899	-0.010834	-0.16388	0.050812	-0.060272	-0.10178	0.12207	0.2124	-0.088654	0.061035	-0.007324	0.01236	-0.004883	0.001678	0.006561	0.011139	-0.002899
46.349	0.02655	0.27741	-0.021515	0.021362	0.01358	-0.057068	0.24414	0.018005	0.26443	-0.022278	-0.13092	0.007782	0.10956	0.003967	-0.01358	0.007782	-0.001526	-0.13016	-0.29923	0.019379	-0.059357	0.10574	0.21301	0.006561	-0.24277	-0.005341	-0.1564	-0.002747	0.058136	-0.025635	0.013428	0.005646
46.35	0.028381	0.27741	-0.037384	-0.001831	0.000458	-0.054321	0.23529	0.014801	0.2742	-0.018768	-0.072937	0.009308	0.063477	-0.0383	0.045776	-0.003204	-0.016937	-0.12299	-0.11276	0.070496	-0.042114	0.075531	0.01236	-0.015717	-0.41824	-0.002899	-0.25726	-0.005951	0.052795	0.002594	0.016174	0.002747
46.351	0.022736	0.29144	-0.035706	-0.008087	0	-0.034027	0.24612	0.020905	0.27832	-0.075378	0.033569	0.005188	0.064087	-0.082245	0.26886	0.026093	-0.006409	-0.046234	0.042267	0.097351	-0.039215	0.076599	-0.28442	-0.11322	-0.50674	-0.00885	-0.072327	-0.010223	-0.074005	-0.037842	0.012665	-0.002289
46.352	0.023193	0.30701	-0.029449	-0.000305	0.007782	-0.030212	0.25436	0.019684	0.28229	-0.16541	0.097504	0.006866	0.05661	-0.081482	0.32577	0.022888	0.000763	0.01709	0.052643	0.096588	-0.023193	0.07019	-0.28351	-0.11078	-0.2385	-0.000458	0.073242	-0.00412	-0.16159	-0.056458	0.013123	0.006714
46.353	0.021515	0.26993	-0.024872	0.018158	0.001678	-0.039215	0.23621	0.023346	0.28381	-0.12863	0.048523	0.005493	-0.017242	-0.09079	0.026703	0.016479	0.007935	0.007782	0.031738	0.016479	0.027618	0.070801	-0.17181	-0.11429	-0.004578	-0.001831	0.10132	-0.004272	-0.13199	-0.053864	0.014954	0.006256
46.354	0.025177	0.25955	-0.055389	0.018921	0.005951	-0.016327	0.24674	0.014954	0.28854	-0.047607	0.051117	0.007172	-0.013885	-0.061646	-0.092316	0.006256	0.016479	-0.005493	-0.24536	-0.02533	0.041351	0.074158	-0.010529	-0.11841	-0.062561	-0.010681	0.084686	-0.003967	-0.078735	-0.045471	0.014496	0.001678
46.355	0.020294	0.26062	-0.06073	0.009918	0.005798	0.006256	0.23666	0.014343	0.28931	0.032501	0.081482	0.007935	-0.016937	-0.013733	-0.092468	0.007782	0.023651	0.032654	-0.31708	0.013733	-0.02533	0.077667	0.049896	-0.044556	-0.095367	-0.008698	0.069733	0.00412	-0.005188	-0.018921	0.019226	0.001068
46.356	0.015259	0.25238	-0.048828	0.01358	0.007629	0.014496	0.21881	0.014801	0.27634	0.09201	0.014343	0.00946	0.003052	-0.000763	0.11505	0.013123	0.005188	0.038757	-0.3212	0.051422	-0.1239	0.084839	0.059662	0.18738	-0.083923	-0.014954	0.121	-0.004883	-0.015106	-0.037537	0.013275	-0.00473
46.357	0.013428	0.24933	-0.066528	0.010223	0.000153	0.010681	0.21057	0.013428	0.27756	0.11978	0	0.00946	0.024567	0.023804	0.032806	0.002441	0.02182	0.090637	-0.15961	0.021362	-0.19302	0.054779	0.044098	0.24826	-0.035248	-0.013275	0.14023	-0.003967	-0.05127	-0.056	0.01358	0.001373
46.358	0.008698	0.22949	-0.078583	0.003052	0.000458	0.011902	0.23163	0.017853	0.27893	0.10117	-0.01236	0.009155	0.06897	-0.001373	0.094452	0.013428	0.013733	0.072479	0.15686	0.032196	-0.067596	0.054016	0.1059	0.15076	0.028534	-0.014343	0.14618	-0.002899	-0.058441	-0.08194	0.013885	-0.003662
46.359	0.010834	0.21027	-0.065308	0.015869	-0.006409	0.020447	0.20538	0.019684	0.26398	0.079956	-0.018005	0.010529	0.047302	-0.046692	0.036316	0.017242	0.00351	0.028687	0.055084	-0.000916	-0.088501	0.07309	0.11414	0.16983	0.14114	-0.024719	0.13702	0.004425	-0.03418	-0.10956	0.014038	-0.002594
46.36	0.011444	0.21118	-0.024567	0.006256	-0.013885	0.009155	0.19134	0.009003	0.25848	0.022278	-0.00351	0.00946	0.006714	-0.070343	0.013428	0.00885	-0.023804	0.075073	0.053101	0.001221	-0.030365	0.052185	0.00885	0.13275	0.17716	-0.032349	0.10147	-0.00412	-0.050659	-0.22308	0.010834	-0.001373
46.361	0.007019	0.14832	0.01297	0.001373	-0.002747	-0.001068	0.19196	0.024872	0.25528	-0.028687	0.009155	0.004425	-0.011902	0.012207	0.57007	0.015869	-0.023804	0.11917	0.017242	0.012512	0.083466	0.037689	-0.037842	-0.13107	0.07309	-0.025024	0.22293	-0.002747	-0.077362	-0.327	0.01236	0
46.362	0.005035	0.11688	-0.005188	0.013123	-0.005341	0.017242	0.19241	0.011902	0.25101	-0.057983	-0.011902	0.006256	0.032806	-0.020447	-0.31464	0.019989	-0.022888	0.15228	-0.15457	0.059509	0.052032	0.004425	0.002594	-0.16281	0.061188	-0.016327	0.21515	-0.006256	-0.037079	-0.34668	0.016174	-0.002594
46.363	-0.000763	0.13718	-0.033722	0.004883	-0.018005	0.009155	0.19486	0.019989	0.242	-0.05249	0.000763	0.009766	0.053558	-0.019836	-0.42343	0.007019	-0.00473	0.19196	0.31693	0.034943	-0.024567	0.00061	0.081177	-0.03952	0.027771	-0.00946	0.017853	-0.006561	0.012665	-0.24292	0.014648	-0.004425
46.364	0.006866	0.11749	-0.056152	0.00351	-0.015564	0.016327	0.18967	0.008392	0.24246	-0.048065	-0.00885	0.003967	0.03952	-0.047607	-0.25589	-0.006409	0.016479	0.19806	0.15259	-0.011292	-0.047455	-0.037994	0.25497	-0.005493	-0.018158	0.001526	-0.25269	-0.011597	0.019073	-0.10376	0.014648	-0.003357
46.365	0.00412	0.083008	-0.048065	0.012512	0.002594	0.016022	0.18082	0.016022	0.23895	-0.041046	-0.008545	0.001221	0.042877	-0.045929	-0.18402	0.000305	0.018158	0.11765	0.47058	-0.053711	-0.013275	-0.033875	0.39185	0.01236	-0.006714	-0.019226	-0.40832	-0.015717	-0.003967	0.12726	0.016022	-0.002594
46.366	0.004425	0.12955	-0.036774	0.010223	0.023346	0.011749	0.18967	0.011749	0.24139	-0.058899	-0.00061	0.012207	0.036774	-0.013733	-0.064697	0.011597	0.033875	0.20279	1.0872	-0.14481	-0.036316	0.059967	0.36057	-0.031281	-0.066376	-0.013733	-0.31647	-0.003357	-0.12085	0.25879	0.011139	-0.002289
46.367	0.003204	0.14771	-0.05188	0.002747	0.029602	0.043488	0.17685	0.012054	0.22614	-0.063171	0.010681	0.00351	0.039825	-0.015259	-0.007629	0.019073	0.019684	0.24643	0.87952	-0.088806	-0.001831	0.051422	0.23712	-0.090179	-0.10956	0.000763	0.002289	0	-0.053253	0.21988	0.014038	0.003357
46.368	0.003662	0.13611	-0.055695	0.003662	-0.005035	0.031281	0.18051	0.015717	0.22644	-0.006256	0.016327	0.004272	0.032501	-0.046387	0.042877	0.016632	0.014038	0.28748	-0.25742	-0.012817	-0.019226	0.053864	0.12177	-0.17334	-0.041809	0.012817	0.39734	0.004272	0.049896	-0.22888	0.01236	-0.002136
46.369	0.00824	0.1445	-0.053101	-0.00061	-0.023193	-0.018768	0.16113	0.014038	0.22476	0.019073	0.032959	0.00473	0.03479	-0.032349	0.069885	0.019836	-0.007477	0.26062	0.010071	0.002594	-0.01297	0.055847	0.075684	-0.18402	0.049591	0.009766	0.58243	-0.00061	-0.13977	-0.25589	0.013123	0.009308
46.37	0.00824	0.10788	-0.073242	0.013885	-0.018158	-0.059662	0.15411	0.012817	0.2121	0.044556	0.023499	0.001373	0.028992	-0.029907	0.088959	0.012817	-0.026245	0.2243	0.35797	-0.013428	-0.04715	0.10208	-0.34592	-0.012665	0.098267	0.002594	0.48401	-0.003357	-0.17303	-0.065308	0.010529	0.00824
46.371	0.008087	0.10635	-0.059814	0.008087	-0.003815	-0.03006	0.16419	0.011597	0.21515	0.036163	0.021057	-0.007629	0.034485	-0.032196	0.11902	0.013428	-0.053406	0.2565	0.31052	0.007172	-0.010529	0.091858	-0.64179	0.026245	0.024872	0.002747	1.4871	-0.003662	-0.08255	-0.26199	0.012054	0.007782
46.372	0.007477	0.10666	-0.057983	-0.006104	0.010834	-0.010834	0.16434	0.011139	0.19806	0.016937	0.010071	0.002441	0.060272	-0.002899	0.13062	0.005493	-0.034943	0.24536	0.60959	0.055084	-0.011749	0.041046	-0.58227	-0.096893	0.016022	-0.000916	1.4371	-0.003815	-0.10132	-0.36118	0.004578	0.006409
46.373	0.00412	0.067139	-0.033112	-0.004425	0.007324	0.002899	0.18158	0.012207	0.18463	-0.022278	-0.001068	-0.000153	0.074921	0.027924	0.089111	0.041656	-0.019226	0.23712	-0.25406	0.11963	0.082855	0.032043	-0.43304	-0.030823	0.078735	-0.004425	0.52597	-0.001221	0.009766	-0.33844	0.00412	0.002136
46.374	0.010223	0.084229	-0.01236	0.015869	0.003815	-0.025177	0.15747	0.009918	0.18372	-0.059204	0.016327	0.002441	0.11658	0.005035	0.069885	-0.000153	0.003357	0.17868	-0.44937	0.056763	0.082703	0.071106	-0.4744	-0.045166	0.10025	0	-0.4892	-0.006409	0.18646	-0.3064	0.009155	0.000153
46.375	0.005646	0.10407	-0.079193	-0.000458	0.005035	-0.016479	0.13489	0.01358	0.18173	-0.058899	0.018616	0.002747	0.086975	-0.009155	0.022278	0.018616	-0.005798	0.24704	0.14679	-0.036926	-0.031433	0.077972	-0.36819	-0.016479	0.085297	0.006409	-1.4212	-0.007782	0.34988	-0.1181	0.007629	-0.001678
46.376	0.017548	0.088959	-0.058289	0.003052	-0.006409	-0.015717	0.13809	0.007477	0.17853	-0.037079	0.014038	0	0.070648	-0.04425	-0.014954	0.00412	-0.018005	0.25497	0.75424	-0.081635	-0.16388	0.061951	-0.242	-0.003357	0.050507	0.007629	-1.3219	-0.00412	0.39139	-0.075684	0.006561	-0.012054
